<mxfile host="app.diagrams.net" modified="2021-05-01T17:21:24.473Z" agent="5.0 (Windows NT 10.0; Win64; x64) AppleWebKit/537.36 (KHTML, like Gecko) Chrome/90.0.4430.85 Safari/537.36" etag="cnUXTtkGRqB4eyE72Nli" version="14.6.9" type="github">
  <diagram id="prtHgNgQTEPvFCAcTncT" name="Page-1">
    <mxGraphModel dx="852" dy="465" grid="1" gridSize="10" guides="1" tooltips="1" connect="1" arrows="1" fold="1" page="1" pageScale="1" pageWidth="827" pageHeight="1169" math="0" shadow="0">
      <root>
        <mxCell id="0" />
        <mxCell id="1" parent="0" />
        <mxCell id="dNxyNK7c78bLwvsdeMH5-19" value="Pool" style="swimlane;html=1;childLayout=stackLayout;resizeParent=1;resizeParentMax=0;horizontal=0;startSize=20;horizontalStack=0;" parent="1" vertex="1">
          <mxGeometry x="120" y="120" width="530" height="360" as="geometry" />
        </mxCell>
        <mxCell id="dNxyNK7c78bLwvsdeMH5-27" value="" style="edgeStyle=orthogonalEdgeStyle;rounded=0;orthogonalLoop=1;jettySize=auto;html=1;dashed=1;endArrow=none;endFill=0;" parent="dNxyNK7c78bLwvsdeMH5-19" source="dNxyNK7c78bLwvsdeMH5-24" target="dNxyNK7c78bLwvsdeMH5-26" edge="1">
          <mxGeometry relative="1" as="geometry" />
        </mxCell>
        <mxCell id="dNxyNK7c78bLwvsdeMH5-20" value="CLI Class" style="swimlane;html=1;startSize=20;horizontal=0;" parent="dNxyNK7c78bLwvsdeMH5-19" vertex="1">
          <mxGeometry x="20" width="510" height="120" as="geometry">
            <mxRectangle x="20" width="430" height="20" as="alternateBounds" />
          </mxGeometry>
        </mxCell>
        <mxCell id="dNxyNK7c78bLwvsdeMH5-23" value="Prints Greeting" style="ellipse;whiteSpace=wrap;html=1;" parent="dNxyNK7c78bLwvsdeMH5-20" vertex="1">
          <mxGeometry x="40" y="40" width="40" height="40" as="geometry" />
        </mxCell>
        <mxCell id="dNxyNK7c78bLwvsdeMH5-30" value="user inputs number of beer they want to know more about&amp;nbsp;" style="rounded=0;whiteSpace=wrap;html=1;fontFamily=Helvetica;fontSize=12;fontColor=#000000;align=center;" parent="dNxyNK7c78bLwvsdeMH5-20" vertex="1">
          <mxGeometry x="234" y="20" width="76" height="70" as="geometry" />
        </mxCell>
        <mxCell id="aCjkVyvEEk6ZLBAaeUyL-5" value="print numbered list of beers" style="whiteSpace=wrap;html=1;aspect=fixed;" vertex="1" parent="dNxyNK7c78bLwvsdeMH5-20">
          <mxGeometry x="140" y="10" width="60" height="60" as="geometry" />
        </mxCell>
        <mxCell id="aCjkVyvEEk6ZLBAaeUyL-17" value="prints additional details&lt;br&gt;" style="whiteSpace=wrap;html=1;aspect=fixed;" vertex="1" parent="dNxyNK7c78bLwvsdeMH5-20">
          <mxGeometry x="335" y="25" width="60" height="60" as="geometry" />
        </mxCell>
        <mxCell id="aCjkVyvEEk6ZLBAaeUyL-33" style="edgeStyle=orthogonalEdgeStyle;rounded=0;orthogonalLoop=1;jettySize=auto;html=1;entryX=0.25;entryY=0;entryDx=0;entryDy=0;" edge="1" parent="dNxyNK7c78bLwvsdeMH5-20" source="aCjkVyvEEk6ZLBAaeUyL-27" target="aCjkVyvEEk6ZLBAaeUyL-5">
          <mxGeometry relative="1" as="geometry">
            <Array as="points">
              <mxPoint x="458" y="-110" />
              <mxPoint x="155" y="-110" />
            </Array>
          </mxGeometry>
        </mxCell>
        <mxCell id="aCjkVyvEEk6ZLBAaeUyL-27" value="user inputs for next action" style="rounded=0;whiteSpace=wrap;html=1;fontFamily=Helvetica;fontSize=12;fontColor=#000000;align=center;" vertex="1" parent="dNxyNK7c78bLwvsdeMH5-20">
          <mxGeometry x="420" y="20" width="76" height="70" as="geometry" />
        </mxCell>
        <mxCell id="dNxyNK7c78bLwvsdeMH5-21" value="Brands Class" style="swimlane;html=1;startSize=20;horizontal=0;" parent="dNxyNK7c78bLwvsdeMH5-19" vertex="1">
          <mxGeometry x="20" y="120" width="510" height="120" as="geometry">
            <mxRectangle x="20" y="120" width="430" height="20" as="alternateBounds" />
          </mxGeometry>
        </mxCell>
        <mxCell id="dNxyNK7c78bLwvsdeMH5-26" value="new Beer objects are created &amp;amp; stored" style="rounded=0;whiteSpace=wrap;html=1;fontFamily=Helvetica;fontSize=12;fontColor=#000000;align=center;" parent="dNxyNK7c78bLwvsdeMH5-21" vertex="1">
          <mxGeometry x="140" y="30" width="80" height="60" as="geometry" />
        </mxCell>
        <mxCell id="aCjkVyvEEk6ZLBAaeUyL-11" value="retrieve the requested beer" style="whiteSpace=wrap;html=1;aspect=fixed;" vertex="1" parent="dNxyNK7c78bLwvsdeMH5-21">
          <mxGeometry x="242" y="30" width="60" height="60" as="geometry" />
        </mxCell>
        <mxCell id="aCjkVyvEEk6ZLBAaeUyL-15" value="Additional attributes are stored" style="whiteSpace=wrap;html=1;aspect=fixed;" vertex="1" parent="dNxyNK7c78bLwvsdeMH5-21">
          <mxGeometry x="320" y="30" width="70" height="70" as="geometry" />
        </mxCell>
        <mxCell id="dNxyNK7c78bLwvsdeMH5-22" value="Scraper Class" style="swimlane;html=1;startSize=20;horizontal=0;" parent="dNxyNK7c78bLwvsdeMH5-19" vertex="1">
          <mxGeometry x="20" y="240" width="510" height="120" as="geometry">
            <mxRectangle x="20" y="240" width="430" height="20" as="alternateBounds" />
          </mxGeometry>
        </mxCell>
        <mxCell id="dNxyNK7c78bLwvsdeMH5-24" value="gets data from Beer Advocate website" style="rounded=0;whiteSpace=wrap;html=1;fontFamily=Helvetica;fontSize=12;fontColor=#000000;align=center;" parent="dNxyNK7c78bLwvsdeMH5-22" vertex="1">
          <mxGeometry x="40" y="20" width="80" height="60" as="geometry" />
        </mxCell>
        <mxCell id="aCjkVyvEEk6ZLBAaeUyL-13" value="get additional details from Beer Advocate site&lt;br&gt;" style="whiteSpace=wrap;html=1;aspect=fixed;" vertex="1" parent="dNxyNK7c78bLwvsdeMH5-22">
          <mxGeometry x="232" y="20" width="80" height="80" as="geometry" />
        </mxCell>
        <mxCell id="dNxyNK7c78bLwvsdeMH5-25" value="" style="edgeStyle=orthogonalEdgeStyle;rounded=0;orthogonalLoop=1;jettySize=auto;html=1;" parent="dNxyNK7c78bLwvsdeMH5-19" source="dNxyNK7c78bLwvsdeMH5-23" target="dNxyNK7c78bLwvsdeMH5-24" edge="1">
          <mxGeometry relative="1" as="geometry" />
        </mxCell>
        <mxCell id="aCjkVyvEEk6ZLBAaeUyL-1" style="edgeStyle=orthogonalEdgeStyle;rounded=0;orthogonalLoop=1;jettySize=auto;html=1;entryX=0.5;entryY=1;entryDx=0;entryDy=0;" edge="1" parent="dNxyNK7c78bLwvsdeMH5-19" source="dNxyNK7c78bLwvsdeMH5-24" target="dNxyNK7c78bLwvsdeMH5-26">
          <mxGeometry relative="1" as="geometry" />
        </mxCell>
        <mxCell id="aCjkVyvEEk6ZLBAaeUyL-12" style="edgeStyle=orthogonalEdgeStyle;rounded=0;orthogonalLoop=1;jettySize=auto;html=1;entryX=0.5;entryY=0;entryDx=0;entryDy=0;" edge="1" parent="dNxyNK7c78bLwvsdeMH5-19" source="dNxyNK7c78bLwvsdeMH5-30" target="aCjkVyvEEk6ZLBAaeUyL-11">
          <mxGeometry relative="1" as="geometry" />
        </mxCell>
        <mxCell id="aCjkVyvEEk6ZLBAaeUyL-14" style="edgeStyle=orthogonalEdgeStyle;rounded=0;orthogonalLoop=1;jettySize=auto;html=1;entryX=0.5;entryY=0;entryDx=0;entryDy=0;" edge="1" parent="dNxyNK7c78bLwvsdeMH5-19" source="aCjkVyvEEk6ZLBAaeUyL-11" target="aCjkVyvEEk6ZLBAaeUyL-13">
          <mxGeometry relative="1" as="geometry" />
        </mxCell>
        <mxCell id="aCjkVyvEEk6ZLBAaeUyL-16" style="edgeStyle=orthogonalEdgeStyle;rounded=0;orthogonalLoop=1;jettySize=auto;html=1;entryX=0.75;entryY=1;entryDx=0;entryDy=0;" edge="1" parent="dNxyNK7c78bLwvsdeMH5-19" source="aCjkVyvEEk6ZLBAaeUyL-13" target="aCjkVyvEEk6ZLBAaeUyL-15">
          <mxGeometry relative="1" as="geometry" />
        </mxCell>
        <mxCell id="aCjkVyvEEk6ZLBAaeUyL-18" style="edgeStyle=orthogonalEdgeStyle;rounded=0;orthogonalLoop=1;jettySize=auto;html=1;entryX=0.25;entryY=1;entryDx=0;entryDy=0;" edge="1" parent="dNxyNK7c78bLwvsdeMH5-19" source="aCjkVyvEEk6ZLBAaeUyL-15" target="aCjkVyvEEk6ZLBAaeUyL-17">
          <mxGeometry relative="1" as="geometry" />
        </mxCell>
        <mxCell id="aCjkVyvEEk6ZLBAaeUyL-2" style="edgeStyle=orthogonalEdgeStyle;rounded=0;orthogonalLoop=1;jettySize=auto;html=1;" edge="1" parent="1" source="dNxyNK7c78bLwvsdeMH5-26">
          <mxGeometry relative="1" as="geometry">
            <mxPoint x="320" y="190" as="targetPoint" />
          </mxGeometry>
        </mxCell>
        <mxCell id="aCjkVyvEEk6ZLBAaeUyL-7" style="edgeStyle=orthogonalEdgeStyle;rounded=0;orthogonalLoop=1;jettySize=auto;html=1;entryX=0.5;entryY=0;entryDx=0;entryDy=0;" edge="1" parent="1" source="aCjkVyvEEk6ZLBAaeUyL-6" target="dNxyNK7c78bLwvsdeMH5-23">
          <mxGeometry relative="1" as="geometry" />
        </mxCell>
        <mxCell id="aCjkVyvEEk6ZLBAaeUyL-6" value="user starts app" style="rounded=1;whiteSpace=wrap;html=1;" vertex="1" parent="1">
          <mxGeometry x="140" y="30" width="100" height="40" as="geometry" />
        </mxCell>
        <mxCell id="aCjkVyvEEk6ZLBAaeUyL-10" style="edgeStyle=orthogonalEdgeStyle;rounded=0;orthogonalLoop=1;jettySize=auto;html=1;entryX=0.5;entryY=0;entryDx=0;entryDy=0;" edge="1" parent="1" source="aCjkVyvEEk6ZLBAaeUyL-8" target="dNxyNK7c78bLwvsdeMH5-30">
          <mxGeometry relative="1" as="geometry" />
        </mxCell>
        <mxCell id="aCjkVyvEEk6ZLBAaeUyL-8" value="user decides next action" style="rounded=1;whiteSpace=wrap;html=1;" vertex="1" parent="1">
          <mxGeometry x="280" y="30" width="90" height="40" as="geometry" />
        </mxCell>
        <mxCell id="aCjkVyvEEk6ZLBAaeUyL-9" style="edgeStyle=orthogonalEdgeStyle;rounded=0;orthogonalLoop=1;jettySize=auto;html=1;entryX=0.411;entryY=1.025;entryDx=0;entryDy=0;entryPerimeter=0;" edge="1" parent="1" source="aCjkVyvEEk6ZLBAaeUyL-5" target="aCjkVyvEEk6ZLBAaeUyL-8">
          <mxGeometry relative="1" as="geometry" />
        </mxCell>
        <mxCell id="aCjkVyvEEk6ZLBAaeUyL-32" style="edgeStyle=orthogonalEdgeStyle;rounded=0;orthogonalLoop=1;jettySize=auto;html=1;entryX=0.5;entryY=0;entryDx=0;entryDy=0;" edge="1" parent="1" source="aCjkVyvEEk6ZLBAaeUyL-20" target="aCjkVyvEEk6ZLBAaeUyL-27">
          <mxGeometry relative="1" as="geometry">
            <Array as="points">
              <mxPoint x="570" y="50" />
              <mxPoint x="570" y="140" />
            </Array>
          </mxGeometry>
        </mxCell>
        <mxCell id="aCjkVyvEEk6ZLBAaeUyL-20" value="user decides next action" style="rounded=1;whiteSpace=wrap;html=1;" vertex="1" parent="1">
          <mxGeometry x="460" y="30" width="90" height="40" as="geometry" />
        </mxCell>
        <mxCell id="aCjkVyvEEk6ZLBAaeUyL-21" style="edgeStyle=orthogonalEdgeStyle;rounded=0;orthogonalLoop=1;jettySize=auto;html=1;entryX=0.5;entryY=1;entryDx=0;entryDy=0;" edge="1" parent="1" source="aCjkVyvEEk6ZLBAaeUyL-17" target="aCjkVyvEEk6ZLBAaeUyL-20">
          <mxGeometry relative="1" as="geometry" />
        </mxCell>
        <mxCell id="aCjkVyvEEk6ZLBAaeUyL-29" style="edgeStyle=orthogonalEdgeStyle;rounded=0;orthogonalLoop=1;jettySize=auto;html=1;" edge="1" parent="1" source="aCjkVyvEEk6ZLBAaeUyL-27" target="aCjkVyvEEk6ZLBAaeUyL-30">
          <mxGeometry relative="1" as="geometry">
            <mxPoint x="700" y="175" as="targetPoint" />
          </mxGeometry>
        </mxCell>
        <mxCell id="aCjkVyvEEk6ZLBAaeUyL-30" value="program exits&lt;br&gt;" style="rounded=1;whiteSpace=wrap;html=1;" vertex="1" parent="1">
          <mxGeometry x="680" y="145" width="120" height="60" as="geometry" />
        </mxCell>
      </root>
    </mxGraphModel>
  </diagram>
</mxfile>
